<?xml version="1.0" encoding="UTF-8" standalone="no"?>
<!DOCTYPE svg PUBLIC "-//W3C//DTD SVG 1.1//EN"
 "http://www.w3.org/Graphics/SVG/1.1/DTD/svg11.dtd">
<!-- Generated by graphviz version 2.49.3 (0)
 -->
<!-- Pages: 1 -->
<svg width="3279pt" height="212pt"
 viewBox="0.00 0.00 3279.00 212.00" xmlns="http://www.w3.org/2000/svg" xmlns:xlink="http://www.w3.org/1999/xlink">
<g id="graph0" class="graph" transform="scale(1 1) rotate(0) translate(72 176)">
<polygon fill="#ffffff" stroke="transparent" points="-72,36 -72,-176 3207,-176 3207,36 -72,36"/>
<!-- /outputs/83 -->
<g id="node1" class="node">
<title>/outputs/83</title>
<polygon fill="#bcd6fc" stroke="#7c96bc" points="618,-63 564,-63 564,-27 618,-27 618,-63"/>
<text text-anchor="start" x="582" y="-42" font-family="Verdana" font-size="10.00" fill="#202020">Add</text>
</g>
<!-- /outputs/84 -->
<g id="node2" class="node">
<title>/outputs/84</title>
<polygon fill="#bcd6fc" stroke="#7c96bc" points="708,-63 654,-63 654,-27 708,-27 708,-63"/>
<text text-anchor="start" x="670" y="-42" font-family="Verdana" font-size="10.00" fill="#202020">Relu</text>
</g>
<!-- /outputs/83&#45;&gt;/outputs/84 -->
<g id="edge1" class="edge">
<title>/outputs/83&#45;&gt;/outputs/84</title>
<path fill="none" stroke="#7c96bc" d="M618.4,-45C626.39,-45 635.31,-45 643.82,-45"/>
<polygon fill="#7c96bc" stroke="#7c96bc" points="643.92,-48.5 653.92,-45 643.92,-41.5 643.92,-48.5"/>
</g>
<!-- 14065493451725783247 -->
<g id="node22" class="node">
<title>14065493451725783247</title>
<polygon fill="#bcd6fc" stroke="#7c96bc" points="908,-88 744,-88 744,-52 908,-52 908,-88"/>
<text text-anchor="start" x="752" y="-67" font-family="Verdana" font-size="10.00" fill="#202020">Conv3x3 &gt; BatchNorm &gt; Relu</text>
</g>
<!-- /outputs/84&#45;&gt;14065493451725783247 -->
<g id="edge19" class="edge">
<title>/outputs/84&#45;&gt;14065493451725783247</title>
<path fill="none" stroke="#7c96bc" d="M708.23,-49.59C715.81,-50.91 724.54,-52.44 733.75,-54.05"/>
<polygon fill="#7c96bc" stroke="#7c96bc" points="733.44,-57.55 743.89,-55.82 734.64,-50.65 733.44,-57.55"/>
</g>
<!-- 12204999822763425339 -->
<g id="node27" class="node">
<title>12204999822763425339</title>
<polygon fill="#bcd6fc" stroke="#7c96bc" points="1072,-36 944,-36 944,0 1072,0 1072,-36"/>
<text text-anchor="start" x="952" y="-15" font-family="Verdana" font-size="10.00" fill="#202020">Conv1x1 &gt; BatchNorm</text>
</g>
<!-- /outputs/84&#45;&gt;12204999822763425339 -->
<g id="edge26" class="edge">
<title>/outputs/84&#45;&gt;12204999822763425339</title>
<path fill="none" stroke="#7c96bc" d="M708.05,-42.84C756.43,-38.82 861.76,-30.07 933.55,-24.1"/>
<polygon fill="#7c96bc" stroke="#7c96bc" points="934.21,-27.56 943.89,-23.24 933.63,-20.58 934.21,-27.56"/>
</g>
<!-- /outputs/92 -->
<g id="node3" class="node">
<title>/outputs/92</title>
<polygon fill="#bcd6fc" stroke="#7c96bc" points="1162,-63 1108,-63 1108,-27 1162,-27 1162,-63"/>
<text text-anchor="start" x="1126" y="-42" font-family="Verdana" font-size="10.00" fill="#202020">Add</text>
</g>
<!-- /outputs/93 -->
<g id="node4" class="node">
<title>/outputs/93</title>
<polygon fill="#bcd6fc" stroke="#7c96bc" points="1252,-63 1198,-63 1198,-27 1252,-27 1252,-63"/>
<text text-anchor="start" x="1214" y="-42" font-family="Verdana" font-size="10.00" fill="#202020">Relu</text>
</g>
<!-- /outputs/92&#45;&gt;/outputs/93 -->
<g id="edge2" class="edge">
<title>/outputs/92&#45;&gt;/outputs/93</title>
<path fill="none" stroke="#7c96bc" d="M1162.4,-45C1170.39,-45 1179.31,-45 1187.82,-45"/>
<polygon fill="#7c96bc" stroke="#7c96bc" points="1187.92,-48.5 1197.92,-45 1187.92,-41.5 1187.92,-48.5"/>
</g>
<!-- 14922063146817858153 -->
<g id="node23" class="node">
<title>14922063146817858153</title>
<polygon fill="#bcd6fc" stroke="#7c96bc" points="1452,-88 1288,-88 1288,-52 1452,-52 1452,-88"/>
<text text-anchor="start" x="1296" y="-67" font-family="Verdana" font-size="10.00" fill="#202020">Conv3x3 &gt; BatchNorm &gt; Relu</text>
</g>
<!-- /outputs/93&#45;&gt;14922063146817858153 -->
<g id="edge20" class="edge">
<title>/outputs/93&#45;&gt;14922063146817858153</title>
<path fill="none" stroke="#7c96bc" d="M1252.23,-49.59C1259.81,-50.91 1268.54,-52.44 1277.75,-54.05"/>
<polygon fill="#7c96bc" stroke="#7c96bc" points="1277.44,-57.55 1287.89,-55.82 1278.64,-50.65 1277.44,-57.55"/>
</g>
<!-- 15649280983560259088 -->
<g id="node29" class="node">
<title>15649280983560259088</title>
<polygon fill="#bcd6fc" stroke="#7c96bc" points="1616,-36 1488,-36 1488,0 1616,0 1616,-36"/>
<text text-anchor="start" x="1496" y="-15" font-family="Verdana" font-size="10.00" fill="#202020">Conv1x1 &gt; BatchNorm</text>
</g>
<!-- /outputs/93&#45;&gt;15649280983560259088 -->
<g id="edge30" class="edge">
<title>/outputs/93&#45;&gt;15649280983560259088</title>
<path fill="none" stroke="#7c96bc" d="M1252.05,-42.84C1300.43,-38.82 1405.76,-30.07 1477.55,-24.1"/>
<polygon fill="#7c96bc" stroke="#7c96bc" points="1478.21,-27.56 1487.89,-23.24 1477.63,-20.58 1478.21,-27.56"/>
</g>
<!-- /outputs/101 -->
<g id="node5" class="node">
<title>/outputs/101</title>
<polygon fill="#bcd6fc" stroke="#7c96bc" points="1706,-63 1652,-63 1652,-27 1706,-27 1706,-63"/>
<text text-anchor="start" x="1670" y="-42" font-family="Verdana" font-size="10.00" fill="#202020">Add</text>
</g>
<!-- /outputs/102 -->
<g id="node6" class="node">
<title>/outputs/102</title>
<polygon fill="#bcd6fc" stroke="#7c96bc" points="1796,-63 1742,-63 1742,-27 1796,-27 1796,-63"/>
<text text-anchor="start" x="1758" y="-42" font-family="Verdana" font-size="10.00" fill="#202020">Relu</text>
</g>
<!-- /outputs/101&#45;&gt;/outputs/102 -->
<g id="edge3" class="edge">
<title>/outputs/101&#45;&gt;/outputs/102</title>
<path fill="none" stroke="#7c96bc" d="M1706.4,-45C1714.39,-45 1723.31,-45 1731.82,-45"/>
<polygon fill="#7c96bc" stroke="#7c96bc" points="1731.92,-48.5 1741.92,-45 1731.92,-41.5 1731.92,-48.5"/>
</g>
<!-- 8046923724758904931 -->
<g id="node24" class="node">
<title>8046923724758904931</title>
<polygon fill="#bcd6fc" stroke="#7c96bc" points="1996,-88 1832,-88 1832,-52 1996,-52 1996,-88"/>
<text text-anchor="start" x="1840" y="-67" font-family="Verdana" font-size="10.00" fill="#202020">Conv3x3 &gt; BatchNorm &gt; Relu</text>
</g>
<!-- /outputs/102&#45;&gt;8046923724758904931 -->
<g id="edge21" class="edge">
<title>/outputs/102&#45;&gt;8046923724758904931</title>
<path fill="none" stroke="#7c96bc" d="M1796.23,-49.59C1803.81,-50.91 1812.54,-52.44 1821.75,-54.05"/>
<polygon fill="#7c96bc" stroke="#7c96bc" points="1821.44,-57.55 1831.89,-55.82 1822.64,-50.65 1821.44,-57.55"/>
</g>
<!-- 6403679613131334176 -->
<g id="node31" class="node">
<title>6403679613131334176</title>
<polygon fill="#bcd6fc" stroke="#7c96bc" points="2160,-36 2032,-36 2032,0 2160,0 2160,-36"/>
<text text-anchor="start" x="2040" y="-15" font-family="Verdana" font-size="10.00" fill="#202020">Conv1x1 &gt; BatchNorm</text>
</g>
<!-- /outputs/102&#45;&gt;6403679613131334176 -->
<g id="edge34" class="edge">
<title>/outputs/102&#45;&gt;6403679613131334176</title>
<path fill="none" stroke="#7c96bc" d="M1796.05,-42.84C1844.43,-38.82 1949.76,-30.07 2021.55,-24.1"/>
<polygon fill="#7c96bc" stroke="#7c96bc" points="2022.21,-27.56 2031.89,-23.24 2021.63,-20.58 2022.21,-27.56"/>
</g>
<!-- /outputs/110 -->
<g id="node7" class="node">
<title>/outputs/110</title>
<polygon fill="#bcd6fc" stroke="#7c96bc" points="2250,-63 2196,-63 2196,-27 2250,-27 2250,-63"/>
<text text-anchor="start" x="2214" y="-42" font-family="Verdana" font-size="10.00" fill="#202020">Add</text>
</g>
<!-- /outputs/111 -->
<g id="node8" class="node">
<title>/outputs/111</title>
<polygon fill="#bcd6fc" stroke="#7c96bc" points="2340,-63 2286,-63 2286,-27 2340,-27 2340,-63"/>
<text text-anchor="start" x="2302" y="-42" font-family="Verdana" font-size="10.00" fill="#202020">Relu</text>
</g>
<!-- /outputs/110&#45;&gt;/outputs/111 -->
<g id="edge4" class="edge">
<title>/outputs/110&#45;&gt;/outputs/111</title>
<path fill="none" stroke="#7c96bc" d="M2250.4,-45C2258.39,-45 2267.31,-45 2275.82,-45"/>
<polygon fill="#7c96bc" stroke="#7c96bc" points="2275.92,-48.5 2285.92,-45 2275.92,-41.5 2275.92,-48.5"/>
</g>
<!-- /outputs/112 -->
<g id="node9" class="node">
<title>/outputs/112</title>
<polygon fill="#bcd6fc" stroke="#7c96bc" points="2430,-63 2376,-63 2376,-27 2430,-27 2430,-63"/>
<text text-anchor="start" x="2394" y="-42" font-family="Verdana" font-size="10.00" fill="#202020">Pad</text>
</g>
<!-- /outputs/111&#45;&gt;/outputs/112 -->
<g id="edge5" class="edge">
<title>/outputs/111&#45;&gt;/outputs/112</title>
<path fill="none" stroke="#7c96bc" d="M2340.4,-45C2348.39,-45 2357.31,-45 2365.82,-45"/>
<polygon fill="#7c96bc" stroke="#7c96bc" points="2365.92,-48.5 2375.92,-45 2365.92,-41.5 2365.92,-48.5"/>
</g>
<!-- /outputs/113 -->
<g id="node10" class="node">
<title>/outputs/113</title>
<polygon fill="#bcd6fc" stroke="#7c96bc" points="2561,-63 2466,-63 2466,-27 2561,-27 2561,-63"/>
<text text-anchor="start" x="2474.5" y="-42" font-family="Verdana" font-size="10.00" fill="#202020">AveragePool4x4</text>
</g>
<!-- /outputs/112&#45;&gt;/outputs/113 -->
<g id="edge6" class="edge">
<title>/outputs/112&#45;&gt;/outputs/113</title>
<path fill="none" stroke="#7c96bc" d="M2430.26,-45C2438.01,-45 2446.81,-45 2455.69,-45"/>
<polygon fill="#7c96bc" stroke="#7c96bc" points="2455.71,-48.5 2465.71,-45 2455.71,-41.5 2455.71,-48.5"/>
</g>
<!-- /outputs/114 -->
<g id="node11" class="node">
<title>/outputs/114</title>
<polygon fill="#bcd6fc" stroke="#7c96bc" points="2654,-86 2600,-86 2600,-50 2654,-50 2654,-86"/>
<text text-anchor="start" x="2612" y="-65" font-family="Verdana" font-size="10.00" fill="#202020">Shape</text>
</g>
<!-- /outputs/113&#45;&gt;/outputs/114 -->
<g id="edge7" class="edge">
<title>/outputs/113&#45;&gt;/outputs/114</title>
<path fill="none" stroke="#7c96bc" d="M2561.14,-54.62C2570.77,-56.61 2580.76,-58.67 2589.94,-60.56"/>
<polygon fill="#7c96bc" stroke="#7c96bc" points="2589.4,-64.02 2599.9,-62.62 2590.81,-57.17 2589.4,-64.02"/>
</g>
<!-- /outputs/121 -->
<g id="node18" class="node">
<title>/outputs/121</title>
<polygon fill="#bcd6fc" stroke="#7c96bc" points="3045,-63 2986,-63 2986,-27 3045,-27 3045,-63"/>
<text text-anchor="start" x="2994.5" y="-42" font-family="Verdana" font-size="10.00" fill="#202020">Reshape</text>
</g>
<!-- /outputs/113&#45;&gt;/outputs/121 -->
<g id="edge8" class="edge">
<title>/outputs/113&#45;&gt;/outputs/121</title>
<path fill="none" stroke="#7c96bc" d="M2561.31,-36.83C2603.26,-30.22 2666.55,-22 2722,-22 2722,-22 2722,-22 2825.5,-22 2877.77,-22 2937.58,-30.78 2975.67,-37.49"/>
<polygon fill="#7c96bc" stroke="#7c96bc" points="2975.35,-40.98 2985.81,-39.31 2976.59,-34.1 2975.35,-40.98"/>
</g>
<!-- /outputs/116 -->
<g id="node13" class="node">
<title>/outputs/116</title>
<polygon fill="#bcd6fc" stroke="#7c96bc" points="2750,-86 2696,-86 2696,-50 2750,-50 2750,-86"/>
<text text-anchor="start" x="2706" y="-65" font-family="Verdana" font-size="10.00" fill="#202020">Gather</text>
</g>
<!-- /outputs/114&#45;&gt;/outputs/116 -->
<g id="edge9" class="edge">
<title>/outputs/114&#45;&gt;/outputs/116</title>
<path fill="none" stroke="#7c96bc" d="M2654.18,-68C2663.96,-68 2675.25,-68 2685.77,-68"/>
<polygon fill="#7c96bc" stroke="#7c96bc" points="2685.96,-71.5 2695.96,-68 2685.96,-64.5 2685.96,-71.5"/>
</g>
<!-- /outputs/115 -->
<g id="node12" class="node">
<title>/outputs/115</title>
<polygon fill="#bcd6fc" stroke="#7c96bc" points="2657,-140 2597,-140 2597,-104 2657,-104 2657,-140"/>
<text text-anchor="start" x="2605" y="-119" font-family="Verdana" font-size="10.00" fill="#202020">Constant</text>
</g>
<!-- /outputs/115&#45;&gt;/outputs/116 -->
<g id="edge10" class="edge">
<title>/outputs/115&#45;&gt;/outputs/116</title>
<path fill="none" stroke="#7c96bc" d="M2657.23,-105.21C2666.72,-99.76 2677.34,-93.65 2687.2,-87.99"/>
<polygon fill="#7c96bc" stroke="#7c96bc" points="2689.05,-90.97 2695.98,-82.95 2685.56,-84.9 2689.05,-90.97"/>
</g>
<!-- /outputs/118 -->
<g id="node15" class="node">
<title>/outputs/118</title>
<polygon fill="#bcd6fc" stroke="#7c96bc" points="2860,-86 2789,-86 2789,-50 2860,-50 2860,-86"/>
<text text-anchor="start" x="2797.5" y="-65" font-family="Verdana" font-size="10.00" fill="#202020">Unsqueeze</text>
</g>
<!-- /outputs/116&#45;&gt;/outputs/118 -->
<g id="edge11" class="edge">
<title>/outputs/116&#45;&gt;/outputs/118</title>
<path fill="none" stroke="#7c96bc" d="M2750.14,-68C2758.95,-68 2769.03,-68 2778.85,-68"/>
<polygon fill="#7c96bc" stroke="#7c96bc" points="2778.92,-71.5 2788.92,-68 2778.92,-64.5 2778.92,-71.5"/>
</g>
<!-- /outputs/117 -->
<g id="node14" class="node">
<title>/outputs/117</title>
<polygon fill="#bcd6fc" stroke="#7c96bc" points="2753,-140 2693,-140 2693,-104 2753,-104 2753,-140"/>
<text text-anchor="start" x="2701" y="-119" font-family="Verdana" font-size="10.00" fill="#202020">Constant</text>
</g>
<!-- /outputs/119 -->
<g id="node16" class="node">
<title>/outputs/119</title>
<polygon fill="#bcd6fc" stroke="#7c96bc" points="2860,-140 2789,-140 2789,-104 2860,-104 2860,-140"/>
<text text-anchor="start" x="2797.5" y="-119" font-family="Verdana" font-size="10.00" fill="#202020">Unsqueeze</text>
</g>
<!-- /outputs/117&#45;&gt;/outputs/119 -->
<g id="edge12" class="edge">
<title>/outputs/117&#45;&gt;/outputs/119</title>
<path fill="none" stroke="#7c96bc" d="M2753.05,-122C2761.13,-122 2770.1,-122 2778.85,-122"/>
<polygon fill="#7c96bc" stroke="#7c96bc" points="2778.96,-125.5 2788.96,-122 2778.96,-118.5 2778.96,-125.5"/>
</g>
<!-- /outputs/120 -->
<g id="node17" class="node">
<title>/outputs/120</title>
<polygon fill="#bcd6fc" stroke="#7c96bc" points="2950,-86 2896,-86 2896,-50 2950,-50 2950,-86"/>
<text text-anchor="start" x="2906" y="-65" font-family="Verdana" font-size="10.00" fill="#202020">Concat</text>
</g>
<!-- /outputs/118&#45;&gt;/outputs/120 -->
<g id="edge13" class="edge">
<title>/outputs/118&#45;&gt;/outputs/120</title>
<path fill="none" stroke="#7c96bc" d="M2860.07,-68C2868.36,-68 2877.23,-68 2885.6,-68"/>
<polygon fill="#7c96bc" stroke="#7c96bc" points="2885.85,-71.5 2895.85,-68 2885.85,-64.5 2885.85,-71.5"/>
</g>
<!-- /outputs/119&#45;&gt;/outputs/120 -->
<g id="edge14" class="edge">
<title>/outputs/119&#45;&gt;/outputs/120</title>
<path fill="none" stroke="#7c96bc" d="M2857.9,-103.87C2867.28,-98.62 2877.56,-92.87 2887.08,-87.54"/>
<polygon fill="#7c96bc" stroke="#7c96bc" points="2888.91,-90.53 2895.93,-82.59 2885.49,-84.42 2888.91,-90.53"/>
</g>
<!-- /outputs/120&#45;&gt;/outputs/121 -->
<g id="edge15" class="edge">
<title>/outputs/120&#45;&gt;/outputs/121</title>
<path fill="none" stroke="#7c96bc" d="M2950.18,-61.35C2958.21,-59.31 2967.22,-57.02 2975.89,-54.81"/>
<polygon fill="#7c96bc" stroke="#7c96bc" points="2977.02,-58.14 2985.85,-52.28 2975.29,-51.35 2977.02,-58.14"/>
</g>
<!-- /outputs/122 -->
<g id="node19" class="node">
<title>/outputs/122</title>
<polygon fill="#bcd6fc" stroke="#7c96bc" points="3135,-63 3081,-63 3081,-27 3135,-27 3135,-63"/>
<text text-anchor="start" x="3093" y="-42" font-family="Verdana" font-size="10.00" fill="#202020">Linear</text>
</g>
<!-- /outputs/121&#45;&gt;/outputs/122 -->
<g id="edge16" class="edge">
<title>/outputs/121&#45;&gt;/outputs/122</title>
<path fill="none" stroke="#7c96bc" d="M3045.13,-45C3053.23,-45 3062.16,-45 3070.65,-45"/>
<polygon fill="#7c96bc" stroke="#7c96bc" points="3070.7,-48.5 3080.7,-45 3070.7,-41.5 3070.7,-48.5"/>
</g>
<!-- 5828219013494751628 -->
<g id="node20" class="node">
<title>5828219013494751628</title>
<polygon fill="#bcd6fc" stroke="#7c96bc" points="164,-63 0,-63 0,-27 164,-27 164,-63"/>
<text text-anchor="start" x="8" y="-42" font-family="Verdana" font-size="10.00" fill="#202020">Conv3x3 &gt; BatchNorm &gt; Relu</text>
</g>
<!-- 5828219013494751628&#45;&gt;/outputs/83 -->
<g id="edge17" class="edge">
<title>5828219013494751628&#45;&gt;/outputs/83</title>
<path fill="none" stroke="#7c96bc" d="M164.18,-48.13C176.19,-48.49 188.42,-48.8 200,-49 345.76,-51.49 382.3,-53.7 528,-49 536.35,-48.73 545.33,-48.26 553.79,-47.73"/>
<polygon fill="#7c96bc" stroke="#7c96bc" points="554.03,-51.22 563.77,-47.07 553.56,-44.24 554.03,-51.22"/>
</g>
<!-- 15291805340864383346 -->
<g id="node21" class="node">
<title>15291805340864383346</title>
<polygon fill="#bcd6fc" stroke="#7c96bc" points="364,-40 200,-40 200,-4 364,-4 364,-40"/>
<text text-anchor="start" x="208" y="-19" font-family="Verdana" font-size="10.00" fill="#202020">Conv3x3 &gt; BatchNorm &gt; Relu</text>
</g>
<!-- 5828219013494751628&#45;&gt;15291805340864383346 -->
<g id="edge18" class="edge">
<title>5828219013494751628&#45;&gt;15291805340864383346</title>
<path fill="none" stroke="#7c96bc" d="M164.11,-35.58C172.55,-34.6 181.17,-33.6 189.72,-32.6"/>
<polygon fill="#7c96bc" stroke="#7c96bc" points="190.17,-36.07 199.7,-31.44 189.36,-29.12 190.17,-36.07"/>
</g>
<!-- 15315014098718189690 -->
<g id="node25" class="node">
<title>15315014098718189690</title>
<polygon fill="#bcd6fc" stroke="#7c96bc" points="528,-40 400,-40 400,-4 528,-4 528,-40"/>
<text text-anchor="start" x="408" y="-19" font-family="Verdana" font-size="10.00" fill="#202020">Conv3x3 &gt; BatchNorm</text>
</g>
<!-- 15291805340864383346&#45;&gt;15315014098718189690 -->
<g id="edge22" class="edge">
<title>15291805340864383346&#45;&gt;15315014098718189690</title>
<path fill="none" stroke="#7c96bc" d="M364.05,-22C372.61,-22 381.27,-22 389.74,-22"/>
<polygon fill="#7c96bc" stroke="#7c96bc" points="389.94,-25.5 399.94,-22 389.94,-18.5 389.94,-25.5"/>
</g>
<!-- 4127311637500202221 -->
<g id="node26" class="node">
<title>4127311637500202221</title>
<polygon fill="#bcd6fc" stroke="#7c96bc" points="1072,-90 944,-90 944,-54 1072,-54 1072,-90"/>
<text text-anchor="start" x="952" y="-69" font-family="Verdana" font-size="10.00" fill="#202020">Conv3x3 &gt; BatchNorm</text>
</g>
<!-- 14065493451725783247&#45;&gt;4127311637500202221 -->
<g id="edge24" class="edge">
<title>14065493451725783247&#45;&gt;4127311637500202221</title>
<path fill="none" stroke="#7c96bc" d="M908.05,-70.9C916.61,-71 925.27,-71.09 933.74,-71.19"/>
<polygon fill="#7c96bc" stroke="#7c96bc" points="933.9,-74.69 943.94,-71.3 933.97,-67.69 933.9,-74.69"/>
</g>
<!-- 7601799558177488387 -->
<g id="node28" class="node">
<title>7601799558177488387</title>
<polygon fill="#bcd6fc" stroke="#7c96bc" points="1616,-90 1488,-90 1488,-54 1616,-54 1616,-90"/>
<text text-anchor="start" x="1496" y="-69" font-family="Verdana" font-size="10.00" fill="#202020">Conv3x3 &gt; BatchNorm</text>
</g>
<!-- 14922063146817858153&#45;&gt;7601799558177488387 -->
<g id="edge28" class="edge">
<title>14922063146817858153&#45;&gt;7601799558177488387</title>
<path fill="none" stroke="#7c96bc" d="M1452.05,-70.9C1460.61,-71 1469.27,-71.09 1477.74,-71.19"/>
<polygon fill="#7c96bc" stroke="#7c96bc" points="1477.9,-74.69 1487.94,-71.3 1477.97,-67.69 1477.9,-74.69"/>
</g>
<!-- 1890451020330506825 -->
<g id="node30" class="node">
<title>1890451020330506825</title>
<polygon fill="#bcd6fc" stroke="#7c96bc" points="2160,-90 2032,-90 2032,-54 2160,-54 2160,-90"/>
<text text-anchor="start" x="2040" y="-69" font-family="Verdana" font-size="10.00" fill="#202020">Conv3x3 &gt; BatchNorm</text>
</g>
<!-- 8046923724758904931&#45;&gt;1890451020330506825 -->
<g id="edge32" class="edge">
<title>8046923724758904931&#45;&gt;1890451020330506825</title>
<path fill="none" stroke="#7c96bc" d="M1996.05,-70.9C2004.61,-71 2013.27,-71.09 2021.74,-71.19"/>
<polygon fill="#7c96bc" stroke="#7c96bc" points="2021.9,-74.69 2031.94,-71.3 2021.97,-67.69 2021.9,-74.69"/>
</g>
<!-- 15315014098718189690&#45;&gt;/outputs/83 -->
<g id="edge23" class="edge">
<title>15315014098718189690&#45;&gt;/outputs/83</title>
<path fill="none" stroke="#7c96bc" d="M528.23,-33.63C536.99,-35.25 545.73,-36.85 553.76,-38.33"/>
<polygon fill="#7c96bc" stroke="#7c96bc" points="553.38,-41.82 563.85,-40.19 554.65,-34.94 553.38,-41.82"/>
</g>
<!-- 4127311637500202221&#45;&gt;/outputs/92 -->
<g id="edge25" class="edge">
<title>4127311637500202221&#45;&gt;/outputs/92</title>
<path fill="none" stroke="#7c96bc" d="M1072.23,-58.34C1081.09,-56.43 1089.93,-54.52 1098.03,-52.77"/>
<polygon fill="#7c96bc" stroke="#7c96bc" points="1098.82,-56.18 1107.85,-50.65 1097.34,-49.34 1098.82,-56.18"/>
</g>
<!-- 12204999822763425339&#45;&gt;/outputs/92 -->
<g id="edge27" class="edge">
<title>12204999822763425339&#45;&gt;/outputs/92</title>
<path fill="none" stroke="#7c96bc" d="M1072.23,-31.66C1081.09,-33.57 1089.93,-35.48 1098.03,-37.23"/>
<polygon fill="#7c96bc" stroke="#7c96bc" points="1097.34,-40.66 1107.85,-39.35 1098.82,-33.82 1097.34,-40.66"/>
</g>
<!-- 7601799558177488387&#45;&gt;/outputs/101 -->
<g id="edge29" class="edge">
<title>7601799558177488387&#45;&gt;/outputs/101</title>
<path fill="none" stroke="#7c96bc" d="M1616.23,-58.34C1625.09,-56.43 1633.93,-54.52 1642.03,-52.77"/>
<polygon fill="#7c96bc" stroke="#7c96bc" points="1642.82,-56.18 1651.85,-50.65 1641.34,-49.34 1642.82,-56.18"/>
</g>
<!-- 15649280983560259088&#45;&gt;/outputs/101 -->
<g id="edge31" class="edge">
<title>15649280983560259088&#45;&gt;/outputs/101</title>
<path fill="none" stroke="#7c96bc" d="M1616.23,-31.66C1625.09,-33.57 1633.93,-35.48 1642.03,-37.23"/>
<polygon fill="#7c96bc" stroke="#7c96bc" points="1641.34,-40.66 1651.85,-39.35 1642.82,-33.82 1641.34,-40.66"/>
</g>
<!-- 1890451020330506825&#45;&gt;/outputs/110 -->
<g id="edge33" class="edge">
<title>1890451020330506825&#45;&gt;/outputs/110</title>
<path fill="none" stroke="#7c96bc" d="M2160.23,-58.34C2169.09,-56.43 2177.93,-54.52 2186.03,-52.77"/>
<polygon fill="#7c96bc" stroke="#7c96bc" points="2186.82,-56.18 2195.85,-50.65 2185.34,-49.34 2186.82,-56.18"/>
</g>
<!-- 6403679613131334176&#45;&gt;/outputs/110 -->
<g id="edge35" class="edge">
<title>6403679613131334176&#45;&gt;/outputs/110</title>
<path fill="none" stroke="#7c96bc" d="M2160.23,-31.66C2169.09,-33.57 2177.93,-35.48 2186.03,-37.23"/>
<polygon fill="#7c96bc" stroke="#7c96bc" points="2185.34,-40.66 2195.85,-39.35 2186.82,-33.82 2185.34,-40.66"/>
</g>
</g>
</svg>
