<svg xmlns="http://www.w3.org/2000/svg" version="1.1" xmlns:xlink="http://www.w3.org/1999/xlink" xmlns:svgjs="http://svgjs.dev/svgjs" width="100%" height="100%" viewBox="0 0 1000 600"><rect width="1000" height="600" x="0" y="0" fill="#ffffff"/><g><circle r="166.66666666666666" cx="432.9175821940104" cy="455.1398659516559" fill="#3d155f" transform="matrix(0.4694818029964631,0,0,0.469481802996463,0,86.32009700508088)"/><path d="M523.2782952095487 522.0864028638784L531.9847625683066 522.3040645478474L531.9847625683066 530.1398851707295L469.98227716343746 530.1398851707295L469.98227716343746 522.3040645478474L482.07804788685473 522.0864028638784L471.5370034775014 407.223222780836L428.3467064728057 505.07769698801917L421.4126271120806 505.07769698801917L375.0506884266945 406.57023772892916L370.7907383261594 522.0864028638784L382.88650904957666 522.3040645478474L382.88650904957666 530.1398851707295L333.85044110400065 530.1398851707295L333.85044110400065 522.3040645478474L342.58800298903986 522.0864028638784L364.07432064940326 388.19337269669364L351.760888242017 387.97571101272473L351.760888242017 380.1398903898425L403.253423763814 380.1398903898425L439.32307425009697 453.3364052559719L470.41760053137534 380.1398903898425L516.7795392167615 380.1398903898425L516.7795392167615 387.97571101272473L504.9014301773131 388.19337269669364L523.2782952095487 522.0864028638784Z " fill="#df678c" transform="matrix(0.4694818029964631,0,0,0.469481802996463,0,86.32009700508088)"/><path d="M813.0078796781827 519.5655466854546L823.1788359984347 519.7672370374142L823.1788359984347 527.0280897079624L760.7124527057824 527.0280897079624L760.7124527057824 519.7672370374142L770.8834090260343 519.5655466854546L761.3463366690842 485.5375030191159L726.0793379835648 485.5375030191159L719.2218660169359 519.5655466854546L729.82501594853 519.7672370374142L729.82501594853 527.0280897079624L682.9176026641951 527.0280897079624L682.9176026641951 519.7672370374142L693.0885589844472 519.5655466854546L739.5637786574398 389.70577293084955L765.2937049860093 386.1617853178439L813.0078796781827 519.5655466854546ZM727.7504866140877 477.87326964464836L759.0701169826823 477.87326964464836L740.8027336766206 412.92897631363445L727.7504866140877 477.87326964464836ZM826.0601267407158 527.0280897079624L826.0601267407158 521.0061920565951L833.753173022606 520.4011210007161L832.7159083553848 396.13105128613614L824.8211717215349 397.7733870092364L822.7466423870926 391.7803022652918L861.1254350742756 380.13988766647657L864.0355387239795 385.12452065062274L862.9982740567582 520.4011210007161L870.6625074312258 521.0061920565951L870.6625074312258 527.0280897079624L826.0601267407158 527.0280897079624ZM877.3182890458949 527.0280897079624L877.3182890458949 521.0061920565951L884.9825224203623 520.4011210007161L883.9452577531412 396.13105128613614L876.079334026714 397.7733870092364L874.0048046922717 391.7803022652918L912.3835973794547 380.13988766647657L915.2648881217358 385.12452065062274L914.2276234545146 520.4011210007161L921.9206697364049 521.0061920565951L921.9206697364049 527.0280897079624L877.3182890458949 527.0280897079624ZM976.4635034877845 430.56247565639427Q994.7308867938459 430.56247565639427 1005.2187850957489 443.72997434861844Q1015.6778704902289 456.89747304084267 1015.4761801382692 479.3139150157889L1015.4761801382692 479.3139150157889L958.2249330891456 481.18675399827157Q959.665578460286 493.43223965296585 966.7247407788745 499.8575180082525Q973.783903097463 506.28279636353915 985.3955047888555 506.28279636353915L985.3955047888555 506.28279636353915Q1001.5883587604748 506.28279636353915 1011.7305021733039 497.350795062468L1011.7305021733039 497.350795062468L1015.4761801382692 500.693092323514Q1008.2153274677212 514.5809137013084 995.8834030907584 522.3603987054671Q983.5226658063729 530.1398837096258 969.6348444285784 530.1398837096258L969.6348444285784 530.1398837096258Q950.7623900666377 530.1398837096258 939.6406078014331 517.5774560732807Q928.5476384436512 505.0438413443583 928.5476384436512 483.6646640366332L928.5476384436512 483.6646640366332Q928.5476384436512 471.0157976780196 933.6475230574886 458.56862167136563Q938.7185947639032 446.1214456647117 946.6133313977531 437.8233283269424L946.6133313977531 437.8233283269424Q952.0013450858187 434.7115343252789 960.5011527755476 432.63700499083654Q969.0009604652766 430.56247565639427 976.4635034877845 430.56247565639427L976.4635034877845 430.56247565639427ZM957.7927394778035 474.7614756429849L984.7616208255538 472.4564430491601Q984.559930473594 457.9347377080638 980.612562156669 449.43493001833485Q976.6940067471669 440.93512232860587 969.4331540766186 439.2639736980829L969.4331540766186 439.2639736980829Q964.2468307405129 444.68080029357117 961.0197851091582 454.30431137278975Q957.7927394778035 463.9566353594311 957.7927394778035 474.12759167968306L957.7927394778035 474.12759167968306L957.7927394778035 474.7614756429849ZM1114.419704228199 520.4011210007161L1121.9110601581297 521.0061920565951L1121.9110601581297 527.0280897079624L1077.5103698195794 527.0280897079624L1077.5103698195794 521.0061920565951L1085.174603194047 520.4011210007161L1085.174603194047 476.60550171804476Q1085.174603194047 467.50062297243676 1080.1035314876322 462.51598998829064Q1075.0036468737949 457.53135700414447 1066.1004584801465 457.3296666521848L1066.1004584801465 457.3296666521848L1059.4446768654775 464.1583257113908L1058.6379154576389 520.4011210007161L1066.3021488321062 521.0061920565951L1066.3021488321062 527.0280897079624L1021.6997681415962 527.0280897079624L1021.6997681415962 521.0061920565951L1029.3640015160636 520.4011210007161L1028.7589304601847 446.1214456647117L1020.8641938263347 447.9942846471943L1018.7896644918924 441.7706966438673L1051.5787531390504 431.5997403236154L1058.8396058095984 454.82294370640034L1076.0409115410162 430.1590949524749Q1095.7489402182182 430.1590949524749 1105.0843222232086 439.49447695746534Q1114.419704228199 448.82985896245583 1114.419704228199 468.30738438027544L1114.419704228199 468.30738438027544L1114.419704228199 520.4011210007161ZM1130.4108678478588 527.0280897079624L1130.4108678478588 519.7672370374142L1142.224159891211 519.1333530741124L1141.1868952239897 405.264742939167L1129.171912828678 407.9443433294883L1127.0973834942356 400.6834906589402L1174.811558186409 388.0346243003265L1177.6928489286902 393.0192572844727L1176.655584261469 519.1333530741124L1188.4976892122438 519.7672370374142L1188.4976892122438 527.0280897079624L1130.4108678478588 527.0280897079624ZM1251.9725242646944 381.8110362969996Q1266.2925392538311 381.8110362969996 1277.7888893155323 388.87019861558804Q1289.3140522846563 395.9293609341765 1295.8545822696342 408.7799176447498Q1302.395112254612 421.6304743553231 1302.395112254612 438.86059299416354L1302.395112254612 438.86059299416354Q1302.395112254612 461.4787253210695 1291.186891267139 480.98506364631186Q1279.978670279666 500.46258906413146 1260.5875835841148 512.823326348517Q1241.1964968885636 525.1552507254797 1217.9444805983558 527.0280897079624L1217.9444805983558 527.0280897079624L1216.5038352272154 519.5655466854546Q1239.7270386100001 512.7080747188259 1253.125040561607 499.021943692991Q1266.4942296057907 485.3358126671562 1269.4043332554945 465.19559037861194L1269.4043332554945 465.19559037861194Q1254.2487439510965 474.3292820316428 1237.6525092755578 474.3292820316428L1237.6525092755578 474.3292820316428Q1226.0409075841653 474.3292820316428 1216.705525579175 469.0565199732685Q1207.3701435741846 463.75494500747146 1202.0685686083875 454.5348146321722Q1196.7958065500131 445.2858713494502 1196.7958065500131 433.47257930609805L1196.7958065500131 433.47257930609805Q1196.7958065500131 420.1898289841826 1203.94140759087 408.26128531113926Q1211.1158215391497 396.33274163809585 1223.7646878977635 389.0718889675477Q1236.413554256377 381.8110362969996 1251.9725242646944 381.8110362969996L1251.9725242646944 381.8110362969996ZM1226.6747915474673 414.6001249441574Q1226.6747915474673 431.3980499716557 1238.2863932388595 441.33850303252524Q1249.897994930252 451.3077690008175 1270.239907570756 452.748414371958L1270.239907570756 452.748414371958Q1270.0094043113736 437.6216379749827 1264.8230809752677 425.26090069059717Q1259.6367576391622 412.92897631363445 1250.6183176158224 405.3511816614354Q1241.5998775924827 397.7733870092364 1229.9882759010902 396.5344319900555L1229.9882759010902 396.5344319900555Q1226.6747915474673 405.6681236430863 1226.6747915474673 414.6001249441574L1226.6747915474673 414.6001249441574ZM1314.2084042979643 527.0280897079624L1314.2084042979643 519.7672370374142L1326.0216963413163 519.1333530741124L1324.9844316740953 405.264742939167L1312.9694492787835 407.9443433294883L1310.8949199443412 400.6834906589402L1358.6090946365148 388.0346243003265L1361.5191982862184 393.0192572844727L1360.4819336189973 519.1333530741124L1372.2952256623494 519.7672370374142L1372.2952256623494 527.0280897079624L1314.2084042979643 527.0280897079624ZM1457.3509283744847 451.71114970473684Q1471.4692530116617 459.2025056346675 1479.1334863861293 467.0684293610946Q1486.7977197605965 474.9631659949446 1486.7977197605965 486.7764580382967L1486.7977197605965 486.7764580382967Q1486.7977197605965 499.021943692991 1479.5368670900486 508.875958031592Q1472.2760144195004 518.7299723701931 1459.8288384128464 524.4349280399094Q1447.3816624061924 530.1398837096258 1432.0531956572574 530.1398837096258L1432.0531956572574 530.1398837096258Q1417.5314903161611 530.1398837096258 1406.3232693286882 525.7891346887816Q1395.115048341215 521.4383856679372 1388.7762087081967 513.428397404396Q1382.4661819826015 505.44722204827764 1382.4661819826015 495.074575376066L1382.4661819826015 495.074575376066Q1382.4661819826015 484.298547999935 1388.5745183562371 474.7614756429849Q1394.7116676372957 465.19559037861194 1405.0843143095074 458.56862167136563L1405.0843143095074 458.56862167136563Q1396.7861969717378 452.34503366803864 1392.2049446915112 444.96892936779926Q1387.652505318707 437.6216379749827 1387.652505318707 427.8540623586501L1387.652505318707 427.8540623586501Q1387.652505318707 415.20519600003644 1394.9133579892552 405.46643329112663Q1402.1742106598035 395.69885767479406 1413.9875027031555 390.3108439867285Q1425.8296076539305 384.9228302986631 1439.083545068423 384.9228302986631L1439.083545068423 384.9228302986631Q1451.1273403711577 384.9228302986631 1460.2610320241886 389.5905213011583Q1469.3947236772194 394.2582123036535 1474.2641050316743 401.83600695585255Q1479.1334863861293 409.41380160805164 1479.1334863861293 417.9136092977806L1479.1334863861293 417.9136092977806Q1479.1334863861293 427.4506816547307 1473.0251500124937 436.58437330776155Q1466.888000731435 445.71806496079233 1457.3509283744847 451.71114970473684L1457.3509283744847 451.71114970473684ZM1449.0528110367154 431.5997403236154Q1449.0528110367154 418.31699000169993 1438.8818547164635 409.70193068227974Q1428.7108983962116 401.1156842702823 1414.1891930551153 400.07841960306115L1414.1891930551153 400.07841960306115Q1412.3451669800554 405.0342396797845 1412.3451669800554 410.4510662752728L1412.3451669800554 410.4510662752728Q1412.3451669800554 418.7491836130421 1416.8976063528594 425.1744619683287Q1421.4500457256634 431.5997403236154 1428.4227693219834 436.1521796964194Q1435.3666800108808 440.73343197664616 1446.3443977389716 446.1214456647117L1446.3443977389716 446.1214456647117Q1449.0528110367154 438.86059299416354 1449.0528110367154 431.5997403236154L1449.0528110367154 431.5997403236154ZM1413.785812351196 480.35117968301006Q1413.785812351196 489.48487133604084 1419.2890776689526 496.94741435854866Q1424.7923429867094 504.4099573810565 1433.493841028398 508.67426767963235Q1442.195339070087 512.9097650707854 1451.1273403711577 512.9097650707854L1451.1273403711577 512.9097650707854Q1455.478089392002 512.9097650707854 1460.059341672229 512.3046940149064L1460.059341672229 512.3046940149064Q1460.664412728108 509.39459036520265 1460.664412728108 506.68617706745846L1460.664412728108 506.68617706745846Q1460.664412728108 498.6185629890717 1456.1984120775724 492.3949749857447Q1451.7612243344597 486.1713869824177 1445.019003997522 481.7918250541506Q1438.2767836605844 477.4410760333063 1426.8668723211517 471.41917838193893L1426.8668723211517 471.41917838193893Q1421.6805489850458 468.9412683435773 1415.860341685638 465.4260936379944L1415.860341685638 465.4260936379944Q1413.785812351196 472.88863666050224 1413.785812351196 480.35117968301006L1413.785812351196 480.35117968301006ZM1499.0432054152911 527.0280897079624L1499.0432054152911 519.7672370374142L1510.8853103660658 519.1333530741124L1509.8480456988448 405.264742939167L1497.80425039611 407.9443433294883L1495.729721061668 400.6834906589402L1543.4438957538414 388.0346243003265L1546.353999403545 393.0192572844727L1545.3167347363242 519.1333530741124L1557.1300267796762 519.7672370374142L1557.1300267796762 527.0280897079624L1499.0432054152911 527.0280897079624ZM1620.6048618321265 381.8110362969996Q1634.9248768212633 381.8110362969996 1646.4500397903876 388.87019861558804Q1657.9463898520887 395.9293609341765 1664.4869198370666 408.7799176447498Q1671.0274498220444 421.6304743553231 1671.0274498220444 438.86059299416354L1671.0274498220444 438.86059299416354Q1671.0274498220444 461.4787253210695 1659.8192288345713 480.98506364631186Q1648.611007847098 500.46258906413146 1629.219921151547 512.823326348517Q1609.8288344559955 525.1552507254797 1586.6056310732108 527.0280897079624L1586.6056310732108 527.0280897079624L1585.1361727946476 519.5655466854546Q1608.3881890848552 512.7080747188259 1621.7573781290394 499.021943692991Q1635.126567173223 485.3358126671562 1638.0366708229267 465.19559037861194L1638.0366708229267 465.19559037861194Q1622.9098944259515 474.3292820316428 1606.313659750413 474.3292820316428L1606.313659750413 474.3292820316428Q1594.6732451515977 474.3292820316428 1585.337863146607 469.0565199732685Q1576.002481141617 463.75494500747146 1570.7297190832423 454.5348146321722Q1565.4281441174453 445.2858713494502 1565.4281441174453 433.47257930609805L1565.4281441174453 433.47257930609805Q1565.4281441174453 420.1898289841826 1572.6025580657251 408.26128531113926Q1579.7481591065819 396.33274163809585 1592.3970254651958 389.0718889675477Q1605.0458918238091 381.8110362969996 1620.6048618321265 381.8110362969996L1620.6048618321265 381.8110362969996ZM1595.3071291148995 414.6001249441574Q1595.3071291148995 431.3980499716557 1606.918730806292 441.33850303252524Q1618.5303324976844 451.3077690008175 1638.8722451381884 452.748414371958L1638.8722451381884 452.748414371958Q1638.6705547862286 437.6216379749827 1633.484231450123 425.26090069059717Q1628.297908114017 412.92897631363445 1619.2794680906777 405.3511816614354Q1610.232215159915 397.7733870092364 1598.6206134685226 396.5344319900555L1598.6206134685226 396.5344319900555Q1595.3071291148995 405.6681236430863 1595.3071291148995 414.6001249441574L1595.3071291148995 414.6001249441574ZM1670.8257594700847 529.3043093943644L1670.8257594700847 502.1337376946545L1701.1081251714581 495.2762657280257L1701.1081251714581 524.7518700215603L1670.8257594700847 529.3043093943644ZM1725.5990964808466 411.488330942494L1725.5990964808466 389.9074632828092L1752.1357842172547 383.8855656314419L1752.1357842172547 407.54096262556897L1725.5990964808466 411.488330942494ZM1754.844197514999 435.5471086405404L1754.2103135516973 520.4011210007161L1761.9033598335873 521.0061920565951L1761.9033598335873 527.0280897079624L1717.3009791430773 527.0280897079624L1717.3009791430773 521.0061920565951L1724.9652125175448 520.4011210007161L1724.331328554243 446.524826368631L1716.4654048278162 448.195974999154L1714.3908754933736 442.1740773477867L1751.9340938652954 430.56247565639427L1754.844197514999 435.5471086405404ZM1817.6851486041478 430.56247565639427Q1838.4304419485711 430.56247565639427 1851.1081212146073 442.8079613110885Q1863.756987573221 455.0534469657828 1863.756987573221 477.64276638526593L1863.756987573221 477.64276638526593Q1863.756987573221 487.4103420015985 1860.3282515899068 497.78298867381017Q1856.899515606592 508.1556353460218 1850.2725468993458 516.021559072449L1850.2725468993458 516.021559072449Q1843.616765284677 522.4756503351584 1834.800015613297 526.3077670223922Q1825.9832659419171 530.1398837096258 1816.2445032330074 530.1398837096258L1816.2445032330074 530.1398837096258Q1795.4992098885841 530.1398837096258 1782.8503435299704 517.8943980549316Q1770.2014771713566 505.6489124002373 1770.2014771713566 483.0595929807542L1770.2014771713566 483.0595929807542Q1770.2014771713566 473.49370771638127 1773.7166518769395 463.1210610441696Q1777.2318265825224 452.748414371958 1783.8876081971916 444.8824906455308L1783.8876081971916 444.8824906455308Q1790.514576904438 438.4572122902442 1799.331326575818 434.5098439733192Q1808.1480762471979 430.56247565639427 1817.6851486041478 430.56247565639427L1817.6851486041478 430.56247565639427ZM1800.0516492613879 473.0903270124619Q1800.0516492613879 492.798355689664 1807.8311342655466 502.5371183985738Q1815.6106192697052 512.3046940149064 1830.7662085741035 514.1775329973891L1830.7662085741035 514.1775329973891Q1832.206853945244 507.9539449940621 1833.0424282605054 500.2608987121718Q1833.8780025757674 492.59666533770434 1833.8780025757674 487.6120323535582L1833.8780025757674 487.6120323535582Q1833.8780025757674 467.7023133243964 1826.0985175716082 458.04998933775505Q1818.3190325674495 448.3976653511137 1803.393946522434 446.524826368631L1803.393946522434 446.524826368631Q1801.9244882438707 452.9789176313405 1801.0024752063405 460.64315100580797Q1800.0516492613879 468.30738438027544 1800.0516492613879 473.0903270124619L1800.0516492613879 473.0903270124619Z " fill="#3d155f" transform="matrix(0.4694818029964631,0,0,0.469481802996463,0,86.32009700508088)"/></g></svg>